# xmcd CD database file
#
# Track frame offsets:
#	150
#	15350
#	28193
#	42690
#	52832
#	66036
#	83906
#	98559
#	111082
#	122931
#	136016
#	148620
#	161472
#	172877
#	188792
#
# Disc length: 2689 seconds
#
# Revision: 3
# Processed by: cddbd v1.5.2PL0 Copyright (c) Steve Scherf et al.
# Submitted via: CDex 1.51
#
DISCID=be0a7f0f
DTITLE=Captain  Cook - Captain Cook und seine singenden Saxophone, CD 2
DYEAR=2004
DGENRE=Jazz
TTITLE0=La Paloma
TTITLE1=Moonlight Memories
TTITLE2=Black Forest inn
TTITLE3=Wenn wir auseinandergeh'n
TTITLE4=Heimat, deine Sterne
TTITLE5=Billy Vaughn Medley
TTITLE6=und zwei weiße Gitarren
TTITLE7=Rote Lippen soll man küssen
TTITLE8=Leb wohl, Mariquita Linda
TTITLE9=Rolling home
TTITLE10=Ein fremdes Land
TTITLE11=Edelweiß
TTITLE12=Schön ist die Jugendzeit
TTITLE13=Harbor lights
TTITLE14=Silverstrings
EXTD=YEAR: 2004
EXTT0=
EXTT1=
EXTT2=
EXTT3=
EXTT4=
EXTT5=
EXTT6=
EXTT7=
EXTT8=
EXTT9=
EXTT10=
EXTT11=
EXTT12=
EXTT13=
EXTT14=
PLAYORDER=
